<svg width="89" height="16" viewBox="0 0 89 16" fill="none" xmlns="http://www.w3.org/2000/svg">
    <path d="M7.55615 3.8835L3.89162 15.7929H0L5.52259 0.714563H7.9897L7.55615 3.8835ZM10.591 15.7929L6.91615 3.8835L6.44131 0.714563H8.93938L14.4929 15.7929H10.591ZM10.4465 10.1696V12.9761H2.73549V10.1696H10.4465Z" fill="#005AFF"/>
    <path d="M21.0738 12.6447C21.0738 12.4513 21.0084 12.2857 20.8777 12.1476C20.7538 12.0026 20.5336 11.8714 20.217 11.754C19.9005 11.6298 19.4566 11.5055 18.8854 11.3812C18.3418 11.2639 17.8291 11.1085 17.3474 10.9152C16.8725 10.7219 16.4562 10.4872 16.0983 10.211C15.7405 9.93484 15.4583 9.6069 15.2519 9.22718C15.0523 8.84746 14.9525 8.41251 14.9525 7.92233C14.9525 7.44595 15.0523 6.9972 15.2519 6.57605C15.4583 6.148 15.7577 5.77174 16.1499 5.44725C16.5491 5.11586 17.0342 4.85696 17.6054 4.67055C18.1766 4.47724 18.8269 4.38058 19.5564 4.38058C20.5611 4.38058 21.4282 4.53592 22.1577 4.8466C22.8871 5.15038 23.448 5.57842 23.8403 6.13074C24.2394 6.67616 24.439 7.30788 24.439 8.02589H20.9603C20.9603 7.74283 20.9121 7.50119 20.8157 7.30097C20.7263 7.10076 20.5783 6.94887 20.3719 6.84531C20.1654 6.73484 19.8902 6.67961 19.5461 6.67961C19.3052 6.67961 19.085 6.72449 18.8854 6.81424C18.6927 6.90399 18.5379 7.02826 18.4209 7.18706C18.3039 7.34585 18.2454 7.53226 18.2454 7.74628C18.2454 7.89817 18.2798 8.03625 18.3486 8.16052C18.4243 8.27789 18.5379 8.38835 18.6893 8.49191C18.8407 8.58857 19.0334 8.67832 19.2674 8.76117C19.5013 8.83711 19.7835 8.90615 20.1138 8.96828C20.8639 9.10636 21.5659 9.30313 22.2196 9.55858C22.8734 9.81402 23.4033 10.1765 23.8093 10.646C24.2222 11.1154 24.4287 11.7471 24.4287 12.5411C24.4287 13.0382 24.3151 13.4973 24.088 13.9184C23.8609 14.3327 23.534 14.6986 23.1074 15.0162C22.6807 15.3269 22.168 15.5685 21.5693 15.7411C20.9706 15.9137 20.2962 16 19.5461 16C18.4794 16 17.5779 15.8101 16.8415 15.4304C16.1052 15.0438 15.5478 14.5605 15.1693 13.9806C14.7977 13.3937 14.6119 12.8 14.6119 12.1994H17.8532C17.8669 12.5446 17.9495 12.8276 18.1009 13.0485C18.2592 13.2695 18.4691 13.4317 18.7306 13.5353C18.9921 13.6388 19.2949 13.6906 19.639 13.6906C19.9555 13.6906 20.217 13.6457 20.4235 13.556C20.6368 13.4662 20.7985 13.3454 20.9086 13.1935C21.0188 13.0347 21.0738 12.8518 21.0738 12.6447Z" fill="#005AFF"/>
    <path d="M31.7011 12.6447C31.7011 12.4513 31.6358 12.2857 31.505 12.1476C31.3811 12.0026 31.1609 11.8714 30.8444 11.754C30.5278 11.6298 30.0839 11.5055 29.5127 11.3812C28.9691 11.2639 28.4564 11.1085 27.9747 10.9152C27.4998 10.7219 27.0835 10.4872 26.7256 10.211C26.3678 9.93484 26.0856 9.6069 25.8792 9.22718C25.6796 8.84746 25.5798 8.41251 25.5798 7.92233C25.5798 7.44595 25.6796 6.9972 25.8792 6.57605C26.0856 6.148 26.385 5.77174 26.7773 5.44725C27.1764 5.11586 27.6616 4.85696 28.2327 4.67055C28.8039 4.47724 29.4543 4.38058 30.1837 4.38058C31.1885 4.38058 32.0556 4.53592 32.785 4.8466C33.5145 5.15038 34.0753 5.57842 34.4676 6.13074C34.8667 6.67616 35.0663 7.30788 35.0663 8.02589H31.5876C31.5876 7.74283 31.5394 7.50119 31.4431 7.30097C31.3536 7.10076 31.2057 6.94887 30.9992 6.84531C30.7928 6.73484 30.5175 6.67961 30.1734 6.67961C29.9325 6.67961 29.7123 6.72449 29.5127 6.81424C29.3201 6.90399 29.1652 7.02826 29.0482 7.18706C28.9312 7.34585 28.8727 7.53226 28.8727 7.74628C28.8727 7.89817 28.9072 8.03625 28.976 8.16052C29.0517 8.27789 29.1652 8.38835 29.3166 8.49191C29.468 8.58857 29.6607 8.67832 29.8947 8.76117C30.1287 8.83711 30.4108 8.90615 30.7411 8.96828C31.4912 9.10636 32.1932 9.30313 32.847 9.55858C33.5007 9.81402 34.0306 10.1765 34.4366 10.646C34.8495 11.1154 35.056 11.7471 35.056 12.5411C35.056 13.0382 34.9424 13.4973 34.7153 13.9184C34.4883 14.3327 34.1614 14.6986 33.7347 15.0162C33.308 15.3269 32.7953 15.5685 32.1966 15.7411C31.5979 15.9137 30.9235 16 30.1734 16C29.1067 16 28.2052 15.8101 27.4689 15.4304C26.7325 15.0438 26.1751 14.5605 25.7966 13.9806C25.425 13.3937 25.2392 12.8 25.2392 12.1994H28.4805C28.4943 12.5446 28.5768 12.8276 28.7282 13.0485C28.8865 13.2695 29.0964 13.4317 29.3579 13.5353C29.6194 13.6388 29.9222 13.6906 30.2663 13.6906C30.5829 13.6906 30.8444 13.6457 31.0508 13.556C31.2642 13.4662 31.4259 13.3454 31.536 13.1935C31.6461 13.0347 31.7011 12.8518 31.7011 12.6447Z" fill="#005AFF"/>
    <path d="M40.1504 4.5877V15.7929H36.6614V4.5877H40.1504ZM36.4549 1.69838C36.4549 1.20129 36.6338 0.793959 36.9917 0.476375C37.3495 0.158792 37.814 0 38.3852 0C38.9564 0 39.4209 0.158792 39.7788 0.476375C40.1366 0.793959 40.3156 1.20129 40.3156 1.69838C40.3156 2.19547 40.1366 2.6028 39.7788 2.92039C39.4209 3.23797 38.9564 3.39676 38.3852 3.39676C37.814 3.39676 37.3495 3.23797 36.9917 2.92039C36.6338 2.6028 36.4549 2.19547 36.4549 1.69838Z" fill="#005AFF"/>
    <path d="M47.939 12.6447C47.939 12.4513 47.8736 12.2857 47.7429 12.1476C47.619 12.0026 47.3988 11.8714 47.0822 11.754C46.7657 11.6298 46.3218 11.5055 45.7506 11.3812C45.207 11.2639 44.6943 11.1085 44.2126 10.9152C43.7377 10.7219 43.3214 10.4872 42.9635 10.211C42.6057 9.93484 42.3235 9.6069 42.1171 9.22718C41.9175 8.84746 41.8177 8.41251 41.8177 7.92233C41.8177 7.44595 41.9175 6.9972 42.1171 6.57605C42.3235 6.148 42.6229 5.77174 43.0151 5.44725C43.4143 5.11586 43.8994 4.85696 44.4706 4.67055C45.0418 4.47724 45.6921 4.38058 46.4216 4.38058C47.4263 4.38058 48.2934 4.53592 49.0229 4.8466C49.7524 5.15038 50.3132 5.57842 50.7055 6.13074C51.1046 6.67616 51.3042 7.30788 51.3042 8.02589H47.8255C47.8255 7.74283 47.7773 7.50119 47.681 7.30097C47.5915 7.10076 47.4435 6.94887 47.2371 6.84531C47.0306 6.73484 46.7554 6.67961 46.4113 6.67961C46.1704 6.67961 45.9502 6.72449 45.7506 6.81424C45.5579 6.90399 45.4031 7.02826 45.2861 7.18706C45.1691 7.34585 45.1106 7.53226 45.1106 7.74628C45.1106 7.89817 45.145 8.03625 45.2139 8.16052C45.2896 8.27789 45.4031 8.38835 45.5545 8.49191C45.7059 8.58857 45.8986 8.67832 46.1326 8.76117C46.3665 8.83711 46.6487 8.90615 46.979 8.96828C47.7291 9.10636 48.4311 9.30313 49.0848 9.55858C49.7386 9.81402 50.2685 10.1765 50.6745 10.646C51.0874 11.1154 51.2939 11.7471 51.2939 12.5411C51.2939 13.0382 51.1803 13.4973 50.9532 13.9184C50.7261 14.3327 50.3992 14.6986 49.9726 15.0162C49.5459 15.3269 49.0332 15.5685 48.4345 15.7411C47.8358 15.9137 47.1614 16 46.4113 16C45.3446 16 44.4431 15.8101 43.7067 15.4304C42.9704 15.0438 42.413 14.5605 42.0345 13.9806C41.6629 13.3937 41.4771 12.8 41.4771 12.1994H44.7184C44.7321 12.5446 44.8147 12.8276 44.9661 13.0485C45.1244 13.2695 45.3343 13.4317 45.5958 13.5353C45.8573 13.6388 46.1601 13.6906 46.5042 13.6906C46.8207 13.6906 47.0822 13.6457 47.2887 13.556C47.502 13.4662 47.6637 13.3454 47.7739 13.1935C47.884 13.0347 47.939 12.8518 47.939 12.6447Z" fill="#005AFF"/>
    <path d="M58.5973 4.5877V7.011H51.867V4.5877H58.5973ZM53.2812 1.80194H56.7599V12.1372C56.7599 12.4341 56.7943 12.6654 56.8631 12.8311C56.9319 12.9899 57.0489 13.1038 57.2141 13.1728C57.3861 13.235 57.6132 13.266 57.8954 13.266C58.095 13.266 58.2601 13.2626 58.3909 13.2557C58.5216 13.2419 58.6455 13.2246 58.7625 13.2039V15.6997C58.4666 15.7963 58.1569 15.8688 57.8335 15.9172C57.51 15.9724 57.1659 16 56.8012 16C56.058 16 55.4214 15.8826 54.8915 15.6479C54.3685 15.4132 53.9694 15.0438 53.6941 14.5398C53.4188 14.0358 53.2812 13.3799 53.2812 12.5722V1.80194Z" fill="#005AFF"/>
    <path d="M65.5704 12.9761V8.35728C65.5704 8.0397 65.5257 7.76699 65.4362 7.53916C65.3468 7.31133 65.2057 7.13528 65.013 7.011C64.8203 6.87983 64.5623 6.81424 64.2388 6.81424C63.9773 6.81424 63.7537 6.85912 63.5679 6.94887C63.382 7.03862 63.241 7.17325 63.1446 7.35275C63.0483 7.53226 63.0001 7.76009 63.0001 8.03625H59.5214C59.5214 7.51845 59.6349 7.03862 59.862 6.59676C60.096 6.148 60.4263 5.75793 60.853 5.42654C61.2866 5.09515 61.8027 4.8397 62.4014 4.66019C63.007 4.47379 63.6814 4.38058 64.4246 4.38058C65.3124 4.38058 66.1038 4.52902 66.7988 4.82589C67.5008 5.12276 68.0548 5.56807 68.4608 6.16181C68.8668 6.74865 69.0698 7.48738 69.0698 8.37799V12.9657C69.0698 13.6975 69.1111 14.2533 69.1937 14.633C69.2763 15.0058 69.3932 15.3338 69.5446 15.6168V15.7929H66.0556C65.8904 15.4477 65.7666 15.0265 65.684 14.5295C65.6083 14.0255 65.5704 13.5077 65.5704 12.9761ZM65.9937 8.94757L66.0143 10.8117H64.4762C64.1528 10.8117 63.8775 10.8565 63.6504 10.9463C63.4302 11.036 63.2513 11.1603 63.1137 11.3191C62.9829 11.471 62.8866 11.6436 62.8246 11.8369C62.7696 12.0302 62.7421 12.2339 62.7421 12.4479C62.7421 12.655 62.7902 12.8414 62.8866 13.0071C62.9898 13.1659 63.1274 13.2902 63.2995 13.3799C63.4715 13.4697 63.6642 13.5146 63.8775 13.5146C64.2629 13.5146 64.5898 13.4421 64.8582 13.2971C65.1335 13.1452 65.3433 12.9622 65.4879 12.7482C65.6324 12.5342 65.7046 12.334 65.7046 12.1476L66.4685 13.5767C66.3309 13.8529 66.1726 14.1325 65.9937 14.4155C65.8216 14.6986 65.6049 14.9609 65.3433 15.2026C65.0887 15.4373 64.7756 15.6306 64.404 15.7825C64.0324 15.9275 63.5816 16 63.0517 16C62.3636 16 61.7304 15.8585 61.1524 15.5754C60.5812 15.2923 60.1235 14.8988 59.7795 14.3948C59.4354 13.8839 59.2633 13.2971 59.2633 12.6343C59.2633 12.0544 59.3666 11.5366 59.573 11.0809C59.7863 10.6252 60.1063 10.2386 60.533 9.92104C60.9597 9.60345 61.5033 9.36181 62.164 9.19612C62.8246 9.03042 63.6023 8.94757 64.4969 8.94757H65.9937Z" fill="#005AFF"/>
    <path d="M74.2055 6.97994V15.7929H70.7268V4.5877H73.9887L74.2055 6.97994ZM73.7926 9.80712L72.9771 9.82783C72.9771 8.97174 73.0804 8.20885 73.2868 7.53916C73.4933 6.86257 73.7857 6.28954 74.1642 5.82007C74.5427 5.35059 74.9935 4.99504 75.5165 4.7534C76.0464 4.50485 76.6348 4.38058 77.2817 4.38058C77.7978 4.38058 78.2692 4.45653 78.6958 4.60841C79.1294 4.7603 79.501 5.00539 79.8107 5.34369C80.1273 5.68198 80.3681 6.13074 80.5333 6.68997C80.7053 7.24229 80.7913 7.92578 80.7913 8.74045V15.7929H77.292V8.7301C77.292 8.28134 77.23 7.93959 77.1062 7.70485C76.9823 7.46321 76.8034 7.29752 76.5694 7.20777C76.3354 7.11802 76.0498 7.07314 75.7126 7.07314C75.3548 7.07314 75.052 7.14218 74.8042 7.28026C74.5565 7.41834 74.3569 7.61165 74.2055 7.86019C74.061 8.10183 73.9543 8.38835 73.8855 8.71974C73.8236 9.05113 73.7926 9.41359 73.7926 9.80712Z" fill="#005AFF"/>
    <path d="M88.3941 4.5877V7.011H81.6638V4.5877H88.3941ZM83.078 1.80194H86.5567V12.1372C86.5567 12.4341 86.5911 12.6654 86.66 12.8311C86.7288 12.9899 86.8458 13.1038 87.0109 13.1728C87.183 13.235 87.4101 13.266 87.6922 13.266C87.8918 13.266 88.0569 13.2626 88.1877 13.2557C88.3185 13.2419 88.4423 13.2246 88.5593 13.2039V15.6997C88.2634 15.7963 87.9537 15.8688 87.6303 15.9172C87.3068 15.9724 86.9627 16 86.598 16C85.8548 16 85.2182 15.8826 84.6883 15.6479C84.1653 15.4132 83.7662 15.0438 83.4909 14.5398C83.2156 14.0358 83.078 13.3799 83.078 12.5722V1.80194Z" fill="#005AFF"/>
</svg>
