<svg width="20" height="20" viewBox="0 0 20 20" fill="none" xmlns="http://www.w3.org/2000/svg">
    <path d="M11.6666 3.33398H16.6666V8.33398H11.6666V3.33398Z" stroke="#9BA7B0" stroke-width="1.5" stroke-linecap="round" stroke-linejoin="round"/>
    <path d="M3.33337 11.666H8.33337V16.666H3.33337V11.666Z" stroke="#9BA7B0" stroke-width="1.5" stroke-linecap="round" stroke-linejoin="round"/>
    <path d="M11.6666 14.166C11.6666 14.8291 11.93 15.4649 12.3989 15.9338C12.8677 16.4026 13.5036 16.666 14.1666 16.666C14.8297 16.666 15.4656 16.4026 15.9344 15.9338C16.4032 15.4649 16.6666 14.8291 16.6666 14.166C16.6666 13.503 16.4032 12.8671 15.9344 12.3982C15.4656 11.9294 14.8297 11.666 14.1666 11.666C13.5036 11.666 12.8677 11.9294 12.3989 12.3982C11.93 12.8671 11.6666 13.503 11.6666 14.166Z" stroke="#9BA7B0" stroke-width="1.5" stroke-linecap="round" stroke-linejoin="round"/>
    <path d="M3.33337 5.83398C3.33337 6.16229 3.39804 6.48738 3.52368 6.79069C3.64931 7.09401 3.83346 7.36961 4.06561 7.60175C4.29775 7.8339 4.57335 8.01805 4.87667 8.14368C5.17998 8.26932 5.50507 8.33398 5.83337 8.33398C6.16168 8.33398 6.48677 8.26932 6.79008 8.14368C7.0934 8.01805 7.36899 7.8339 7.60114 7.60175C7.83329 7.36961 8.01744 7.09401 8.14307 6.79069C8.26871 6.48738 8.33337 6.16229 8.33337 5.83398C8.33337 5.50568 8.26871 5.18059 8.14307 4.87728C8.01744 4.57396 7.83329 4.29836 7.60114 4.06622C7.36899 3.83407 7.0934 3.64992 6.79008 3.52429C6.48677 3.39865 6.16168 3.33398 5.83337 3.33398C5.50507 3.33398 5.17998 3.39865 4.87667 3.52429C4.57335 3.64992 4.29775 3.83407 4.06561 4.06622C3.83346 4.29836 3.64931 4.57396 3.52368 4.87728C3.39804 5.18059 3.33337 5.50568 3.33337 5.83398Z" stroke="#9BA7B0" stroke-width="1.5" stroke-linecap="round" stroke-linejoin="round"/>
</svg>
