<svg width="16" height="13" viewBox="0 0 16 13" fill="none" xmlns="http://www.w3.org/2000/svg">
    <path d="M2.47372 12L4.50524 6.60927C4.55788 6.46951 4.65211 6.34907 4.77536 6.26403C4.8986 6.17898 5.04498 6.13339 5.19494 6.13333H14.2635M2.47372 12H12.8089C13.1518 11.9999 13.4838 11.8809 13.748 11.6634C14.0121 11.4458 14.1918 11.1435 14.2561 10.8083L14.99 6.98693C15.0076 6.88192 15.0019 6.77437 14.9735 6.67175C14.9451 6.56913 14.8945 6.4739 14.8254 6.39267C14.7563 6.31145 14.6702 6.24618 14.5731 6.20139C14.4761 6.15661 14.3704 6.13338 14.2635 6.13333M2.47372 12C2.08287 12 1.70802 11.8455 1.43164 11.5704C1.15527 11.2954 1 10.9223 1 10.5333V2.46667C1 2.07768 1.15527 1.70463 1.43164 1.42958C1.70802 1.15452 2.08287 1 2.47372 1H5.42116L7.63174 3.2H12.7898C13.1806 3.2 13.5555 3.35452 13.8318 3.62958C14.1082 3.90463 14.2635 4.27768 14.2635 4.66667V6.13333" stroke="#9BA7B0" stroke-width="1.5" stroke-linecap="round" stroke-linejoin="round"/>
</svg>
